<?xml version="1.0" standalone="no"?>
<!DOCTYPE svg PUBLIC "-//W3C//DTD SVG 20010904//EN"
 "http://www.w3.org/TR/2001/REC-SVG-20010904/DTD/svg10.dtd">
<svg version="1.0" xmlns="http://www.w3.org/2000/svg"
 width="1024.000000pt" height="724.000000pt" viewBox="0 0 1024.000000 724.000000"
 preserveAspectRatio="xMidYMid meet">

<g transform="translate(0.000000,724.000000) scale(0.100000,-0.100000)"
fill="#000000" stroke="none">
<path d="M2563 7233 c1406 -2 3708 -2 5115 0 1406 1 255 2 -2558 2 -2813 0
-3964 -1 -2557 -2z"/>
<path d="M5 3605 c0 -1975 1 -2781 2 -1792 2 989 2 2605 0 3590 -1 986 -2 177
-2 -1798z"/>
<path d="M6070 5651 c-12 -39 -42 -101 -66 -137 -63 -96 -82 -189 -69 -331 l7
-76 29 47 c48 76 67 138 85 263 9 65 22 159 29 208 7 50 11 91 10 93 -1 1 -12
-29 -25 -67z"/>
<path d="M5865 5483 c-9 -43 -28 -116 -42 -163 -29 -95 -48 -313 -37 -414 l6
-58 33 58 c62 111 70 156 59 317 -6 82 -7 182 -3 237 5 52 6 96 5 98 -2 2 -12
-32 -21 -75z"/>
<path d="M6102 5339 c-4 -51 -33 -129 -69 -181 -150 -218 -251 -391 -241 -417
3 -11 35 15 126 101 29 27 50 54 47 59 -3 5 0 6 8 3 24 -9 54 54 87 186 49
191 52 206 47 242 -3 26 -4 27 -5 7z"/>
<path d="M5716 5141 c-66 -203 -114 -515 -98 -636 l7 -49 33 62 c70 131 74
152 82 437 4 143 11 268 15 278 4 9 5 17 2 17 -3 0 -22 -49 -41 -109z"/>
<path d="M4513 5085 c-54 -43 -124 -251 -167 -500 -87 -502 244 -1033 761
-1218 103 -37 220 -57 337 -57 122 0 157 14 59 24 -159 15 -351 82 -511 178
-243 146 -434 395 -518 674 -32 109 -44 319 -24 442 12 80 65 243 121 373 17
42 29 84 26 93 -9 23 -47 19 -84 -9z"/>
<path d="M6060 4940 c-23 -49 -95 -127 -199 -214 -30 -25 -79 -78 -109 -118
-53 -70 -106 -167 -97 -177 9 -9 34 22 45 55 14 41 80 94 117 94 13 0 33 4 43
10 37 20 148 197 201 321 35 81 34 104 -1 29z"/>
<path d="M5580 4803 c-100 -221 -104 -247 -55 -368 21 -52 40 -94 41 -92 1 1
5 90 7 197 4 119 11 217 20 253 8 31 13 57 11 57 -2 0 -13 -21 -24 -47z"/>
<path d="M5846 4536 c-54 -20 -93 -61 -112 -120 -15 -44 -16 -62 -5 -158 7
-59 10 -121 6 -136 -15 -68 -87 -101 -225 -102 -134 -1 -198 -63 -208 -201 -8
-115 46 -211 154 -274 122 -72 411 -71 547 2 86 46 181 148 227 244 84 177
108 369 61 501 -28 76 -81 152 -130 185 -87 59 -239 87 -315 59z m203 -51
c130 -46 231 -203 231 -360 -1 -160 -90 -360 -214 -477 -72 -69 -112 -85 -256
-102 -137 -15 -189 -11 -295 24 -132 44 -208 183 -161 293 27 64 107 117 176
117 16 0 54 -13 85 -30 76 -40 153 -42 207 -5 89 60 86 208 -6 264 -42 26 -46
37 -46 111 0 91 29 146 95 177 36 16 120 11 184 -12z m-219 -357 c37 -61 21
-122 -40 -153 -32 -17 -130 -20 -130 -5 0 6 4 10 10 10 5 0 27 16 49 35 36 33
45 48 70 118 6 15 13 27 16 27 3 0 14 -15 25 -32z"/>
<path d="M6061 4359 c42 -61 89 -172 89 -210 0 -31 18 -12 26 27 14 74 -50
190 -128 230 -29 15 -29 15 13 -47z"/>
<path d="M6159 4078 c0 -2 -2 -47 -4 -101 -3 -91 -2 -97 12 -77 18 26 39 140
30 163 -5 14 -35 25 -38 15z"/>
<path d="M5133 4440 c-172 -34 -302 -222 -306 -440 -2 -67 2 -84 32 -144 26
-53 43 -74 79 -97 115 -73 238 -63 284 21 17 30 19 48 13 126 -10 143 5 159
147 167 119 6 158 46 158 159 -1 159 -183 252 -407 208z m270 -54 c58 -25 99
-72 112 -128 16 -63 -39 -139 -109 -152 -27 -5 -47 -1 -85 19 -28 14 -64 25
-81 25 -108 0 -149 -129 -66 -205 40 -37 47 -79 22 -139 -19 -45 -52 -66 -104
-66 -122 0 -227 105 -239 238 -13 146 88 340 212 409 70 38 250 38 338 -1z
m-145 -296 c-20 -17 -45 -48 -54 -70 -13 -29 -21 -37 -30 -29 -21 17 -25 58
-9 88 18 35 27 39 85 40 l45 1 -37 -30z"/>
<path d="M5643 4358 c-15 -16 -25 -48 -33 -101 -10 -69 -28 -132 -56 -202 -4
-11 27 18 69 65 60 65 76 90 72 105 -4 11 -9 50 -12 88 -3 37 -9 67 -13 67 -3
0 -16 -10 -27 -22z"/>
<path d="M3882 4142 c12 -168 142 -305 347 -366 52 -15 152 -22 163 -11 2 3 1
30 -3 61 -25 187 -233 361 -453 382 l-59 5 5 -71z"/>
<path d="M2687 3123 c-14 -38 -88 -227 -165 -421 l-140 -353 81 3 82 3 29 83
28 83 146 -3 146 -3 20 -62 20 -63 58 0 c33 0 72 -7 88 -15 17 -9 30 -14 30
-11 0 4 -248 625 -302 754 -29 69 -31 72 -63 72 -31 0 -34 -3 -58 -67z m117
-347 c25 -77 45 -141 43 -142 -1 -2 -47 -3 -102 -4 -79 -2 -99 1 -97 11 12 56
96 289 102 282 4 -4 28 -71 54 -147z"/>
<path d="M3539 2959 c-24 -30 -24 -30 -61 -15 -48 20 -141 20 -199 1 -52 -18
-116 -75 -135 -122 -18 -42 -18 -134 0 -176 7 -18 28 -48 47 -66 l34 -34 -37
-37 c-40 -40 -47 -69 -27 -114 21 -46 63 -56 209 -54 120 3 133 1 146 -16 56
-77 -74 -151 -198 -113 -26 8 -77 34 -114 57 -88 55 -135 71 -217 71 -77 0
-156 -20 -240 -63 -62 -31 -157 -97 -157 -109 0 -4 15 -10 33 -13 21 -4 66
-33 121 -80 137 -116 238 -154 354 -135 53 8 127 44 151 72 9 12 4 21 -29 49
-58 50 -124 84 -219 111 -93 27 -93 41 -2 40 41 0 85 -11 161 -41 155 -59 206
-72 284 -72 80 0 140 24 181 71 54 65 57 174 4 233 -42 48 -95 60 -229 51
-106 -6 -110 -6 -110 14 0 29 15 34 117 41 81 5 98 10 135 36 59 41 88 101 88
181 0 35 -6 79 -14 98 -15 34 -14 35 17 60 l32 25 -45 39 c-25 22 -48 40 -51
41 -4 0 -17 -14 -30 -31z m-82 -144 c34 -34 35 -38 31 -92 -6 -73 -37 -103
-104 -103 -56 0 -79 12 -99 50 -33 63 -8 147 49 170 47 19 87 11 123 -25z"/>
<path d="M3933 2939 c-24 -12 -43 -25 -43 -30 0 -5 -4 -9 -10 -9 -5 0 -10 11
-10 25 0 24 -2 25 -70 25 l-70 0 0 -305 0 -305 69 0 70 0 3 208 3 209 28 36
c35 47 84 61 139 43 l39 -14 29 59 c21 41 26 60 18 65 -6 4 -43 9 -82 11 -57
3 -79 -1 -113 -18z"/>
<path d="M4307 2946 c-135 -49 -208 -174 -194 -337 15 -173 126 -279 293 -279
112 0 204 55 256 152 20 38 23 57 23 163 0 133 -14 175 -78 243 -61 63 -205
91 -300 58z m178 -120 c46 -30 60 -72 60 -176 0 -105 -14 -144 -68 -184 -39
-29 -115 -29 -154 0 -47 34 -63 78 -63 175 0 103 25 163 81 192 40 21 106 18
144 -7z"/>
<path d="M6927 2234 c-4 -4 -7 -27 -7 -51 l0 -43 66 0 65 0 -3 48 -3 47 -55 3
c-31 2 -59 0 -63 -4z"/>
<path d="M7120 2185 l0 -45 60 0 60 0 0 45 0 45 -60 0 -60 0 0 -45z"/>
<path d="M18 3 c7 -3 16 -2 19 1 4 3 -2 6 -13 5 -11 0 -14 -3 -6 -6z"/>
<path d="M2577 3 c1392 -2 3674 -2 5070 0 1396 1 257 2 -2532 2 -2788 0 -3931
-1 -2538 -2z"/>
<path d="M10198 3 c6 -2 18 -2 25 0 6 3 1 5 -13 5 -14 0 -19 -2 -12 -5z"/>
</g>
</svg>
